<svg width="100" height="100" viewBox="0 0 100 100" fill="none" xmlns="http://www.w3.org/2000/svg">
<path d="M90.625 12.5H9.375C4.19727 12.5 0 16.6973 0 21.875V78.125C0 83.3027 4.19727 87.5 9.375 87.5H90.625C95.8027 87.5 100 83.3027 100 78.125V21.875C100 16.6973 95.8027 12.5 90.625 12.5ZM90.625 21.875V29.8447C86.2457 33.4109 79.2641 38.9563 64.3385 50.6436C61.0492 53.2309 54.5336 59.4467 50 59.3742C45.4672 59.4475 38.9494 53.2299 35.6615 50.6436C20.7383 38.958 13.7549 33.4115 9.375 29.8447V21.875H90.625ZM9.375 78.125V41.8746C13.8504 45.4393 20.1971 50.4414 29.8707 58.0164C34.1396 61.3768 41.6156 68.7949 50 68.7498C58.3432 68.7949 65.7244 61.4844 70.1275 58.018C79.801 50.4432 86.1494 45.4396 90.625 41.8748V78.125H9.375Z" fill="#313131"/>
</svg>
