<svg width="100" height="115" viewBox="0 0 100 115" fill="none" xmlns="http://www.w3.org/2000/svg">
<path d="M22.3839 100H1.65179V33.2366H22.3839V100ZM12.0067 24.1295C5.37723 24.1295 0 18.6384 0 12.0089C4.74509e-08 8.82455 1.26499 5.77061 3.51668 3.51891C5.76837 1.26722 8.82232 0.00223351 12.0067 0.00223351C15.1911 0.00223351 18.245 1.26722 20.4967 3.51891C22.7484 5.77061 24.0134 8.82455 24.0134 12.0089C24.0134 18.6384 18.6339 24.1295 12.0067 24.1295ZM99.9777 100H79.2902V67.5C79.2902 59.7545 79.1339 49.8214 68.5112 49.8214C57.7321 49.8214 56.0804 58.2366 56.0804 66.942V100H35.3705V33.2366H55.2545V42.3437H55.5446C58.3125 37.0982 65.0737 31.5625 75.1607 31.5625C96.1429 31.5625 100 45.3795 100 63.3259V100H99.9777Z" fill="#313131"/>
</svg>
