<svg width="100" height="115" viewBox="0 0 100 115" fill="none" xmlns="http://www.w3.org/2000/svg">
<path d="M85.0223 21.6741C75.6696 12.2991 63.2143 7.14282 49.9777 7.14282C22.6562 7.14282 0.424107 29.375 0.424107 56.6964C0.424107 65.4241 2.70089 73.9509 7.03125 81.4732L0 107.143L26.2723 100.245C33.5045 104.196 41.6518 106.272 49.9554 106.272H49.9777C77.2768 106.272 100 84.0401 100 56.7187C100 43.4821 94.375 31.0491 85.0223 21.6741V21.6741ZM49.9777 97.9241C42.567 97.9241 35.3125 95.9375 28.9955 92.1875L27.5 91.2946L11.9196 95.3794L16.0714 80.1785L15.0893 78.616C10.9598 72.0535 8.79464 64.4866 8.79464 56.6964C8.79464 33.9955 27.2768 15.5134 50 15.5134C61.0045 15.5134 71.3393 19.7991 79.1071 27.5892C86.875 35.3794 91.6518 45.7142 91.6295 56.7187C91.6295 79.4419 72.6786 97.9241 49.9777 97.9241V97.9241ZM72.567 67.0759C71.3393 66.4509 65.2455 63.4598 64.1071 63.058C62.9688 62.6339 62.1429 62.433 61.317 63.683C60.4911 64.933 58.125 67.7009 57.3884 68.5491C56.6741 69.375 55.9375 69.4866 54.7098 68.8616C47.433 65.2232 42.6563 62.366 37.8571 54.1294C36.5848 51.9419 39.1295 52.0982 41.4955 47.366C41.8973 46.5401 41.6964 45.8259 41.3839 45.2009C41.0714 44.5759 38.5938 38.4821 37.567 36.0044C36.5625 33.5937 35.5357 33.9285 34.7768 33.8839C34.0625 33.8392 33.2366 33.8393 32.4107 33.8393C31.5848 33.8393 30.2455 34.1517 29.1071 35.3794C27.9687 36.6294 24.7768 39.6205 24.7768 45.7142C24.7768 51.808 29.2188 57.7009 29.8214 58.5267C30.4464 59.3526 38.5491 71.8526 50.9821 77.2321C58.8393 80.625 61.9196 80.9151 65.8482 80.3348C68.2366 79.9776 73.1696 77.3437 74.1964 74.4419C75.2232 71.5401 75.2232 69.0625 74.9107 68.5491C74.6205 67.991 73.7946 67.6785 72.567 67.0759Z" fill="#313131"/>
</svg>
